<mxfile host="app.diagrams.net" modified="2023-12-18T12:14:11.128Z" agent="Mozilla/5.0 (Windows NT 10.0; Win64; x64; rv:120.0) Gecko/20100101 Firefox/120.0" etag="7rjhWN6rO8mFG0ktDfeO" version="22.1.11" type="github">
  <diagram name="Page-1" id="e_ZKEXbMGHVtTAfTzExy">
    <mxGraphModel dx="2415" dy="2245" grid="1" gridSize="10" guides="1" tooltips="1" connect="1" arrows="1" fold="1" page="1" pageScale="1" pageWidth="827" pageHeight="1169" math="0" shadow="0">
      <root>
        <mxCell id="0" />
        <mxCell id="1" parent="0" />
        <mxCell id="B960Kx4_HZpNjg3P7fA0-1" value="&lt;h1&gt;TE Endpoints&lt;/h1&gt;" style="rounded=0;whiteSpace=wrap;html=1;fillColor=#f5f5f5;strokeColor=#666666;fillStyle=auto;glass=0;shadow=0;noLabel=0;labelPadding=0;direction=east;container=0;backgroundOutline=0;movableLabel=1;fontColor=#333333;" vertex="1" parent="1">
          <mxGeometry x="111.67" y="240" width="470" height="200" as="geometry">
            <mxPoint x="-142" y="-73" as="offset" />
          </mxGeometry>
        </mxCell>
        <mxCell id="B960Kx4_HZpNjg3P7fA0-4" value="&lt;h1&gt;T0 Services&lt;/h1&gt;" style="rounded=0;whiteSpace=wrap;html=1;fillColor=#fad9d5;strokeColor=#ae4132;fillStyle=auto;glass=0;shadow=0;noLabel=0;labelPadding=0;direction=east;container=0;backgroundOutline=0;movableLabel=0;" vertex="1" parent="1">
          <mxGeometry x="111.67" y="-240" width="470" height="200" as="geometry">
            <mxPoint x="-161" y="-72" as="offset" />
          </mxGeometry>
        </mxCell>
        <mxCell id="B960Kx4_HZpNjg3P7fA0-5" value="&lt;h1&gt;T1 Services&lt;br&gt;&lt;/h1&gt;" style="rounded=0;whiteSpace=wrap;html=1;fillColor=#dae8fc;strokeColor=#6c8ebf;fillStyle=auto;glass=0;shadow=0;noLabel=0;labelPadding=0;direction=east;container=0;backgroundOutline=0;movableLabel=0;" vertex="1" parent="1">
          <mxGeometry x="111.67" width="470" height="200" as="geometry">
            <mxPoint x="-161" y="-72" as="offset" />
          </mxGeometry>
        </mxCell>
        <mxCell id="B960Kx4_HZpNjg3P7fA0-10" value="&lt;h1&gt;T1 Web server&lt;br&gt;&lt;/h1&gt;" style="rounded=0;whiteSpace=wrap;html=1;fillColor=#e1d5e7;strokeColor=#9673a6;fillStyle=auto;glass=0;shadow=0;noLabel=0;labelPadding=0;direction=east;container=0;backgroundOutline=0;movableLabel=1;" vertex="1" parent="1">
          <mxGeometry x="371.67" y="40" width="210" height="160" as="geometry">
            <mxPoint x="-15" y="-60" as="offset" />
          </mxGeometry>
        </mxCell>
        <mxCell id="B960Kx4_HZpNjg3P7fA0-18" value="&lt;font style=&quot;font-size: 16px;&quot;&gt;DC0&lt;/font&gt;" style="image;aspect=fixed;perimeter=ellipsePerimeter;html=1;align=center;shadow=0;dashed=0;spacingTop=3;image=img/lib/active_directory/domain_controller.svg;" vertex="1" parent="1">
          <mxGeometry x="145.67000000000002" y="-180" width="70" height="100" as="geometry" />
        </mxCell>
        <mxCell id="B960Kx4_HZpNjg3P7fA0-19" value="&lt;font style=&quot;font-size: 16px;&quot;&gt;DC1&lt;/font&gt;" style="image;aspect=fixed;perimeter=ellipsePerimeter;html=1;align=center;shadow=0;dashed=0;spacingTop=3;image=img/lib/active_directory/domain_controller.svg;" vertex="1" parent="1">
          <mxGeometry x="252.67000000000002" y="-180" width="70" height="100" as="geometry" />
        </mxCell>
        <mxCell id="B960Kx4_HZpNjg3P7fA0-20" value="" style="image;aspect=fixed;perimeter=ellipsePerimeter;html=1;align=center;shadow=0;dashed=0;spacingTop=3;image=img/lib/active_directory/web_server.svg;" vertex="1" parent="1">
          <mxGeometry x="440.67" y="85.5" width="80" height="100" as="geometry" />
        </mxCell>
        <mxCell id="B960Kx4_HZpNjg3P7fA0-21" value="&lt;font style=&quot;font-size: 22px;&quot;&gt;Priviledged Access Infra&lt;/font&gt;" style="rounded=0;whiteSpace=wrap;html=1;movableLabel=1;" vertex="1" parent="1">
          <mxGeometry x="-400" y="-320" width="360" height="760" as="geometry">
            <mxPoint y="-338" as="offset" />
          </mxGeometry>
        </mxCell>
        <mxCell id="B960Kx4_HZpNjg3P7fA0-52" style="edgeStyle=orthogonalEdgeStyle;rounded=0;orthogonalLoop=1;jettySize=auto;html=1;" edge="1" parent="1" source="B960Kx4_HZpNjg3P7fA0-22" target="B960Kx4_HZpNjg3P7fA0-4">
          <mxGeometry relative="1" as="geometry" />
        </mxCell>
        <mxCell id="B960Kx4_HZpNjg3P7fA0-53" value="&lt;div&gt;T0 Account has DA.&amp;nbsp;&lt;/div&gt;&lt;div&gt;Can&amp;nbsp; RDP to DCs&lt;/div&gt;" style="edgeLabel;html=1;align=center;verticalAlign=middle;resizable=0;points=[];" vertex="1" connectable="0" parent="B960Kx4_HZpNjg3P7fA0-52">
          <mxGeometry x="-0.284" y="7" relative="1" as="geometry">
            <mxPoint x="16" y="7" as="offset" />
          </mxGeometry>
        </mxCell>
        <mxCell id="B960Kx4_HZpNjg3P7fA0-22" value="&lt;h1&gt;T0 Accounts&lt;/h1&gt;" style="rounded=0;whiteSpace=wrap;html=1;fillColor=#fad9d5;strokeColor=#ae4132;fillStyle=auto;glass=0;shadow=0;noLabel=0;labelPadding=0;direction=east;container=0;backgroundOutline=0;movableLabel=1;" vertex="1" parent="1">
          <mxGeometry x="-400" y="-240" width="360" height="200" as="geometry">
            <mxPoint x="-21" y="-75" as="offset" />
          </mxGeometry>
        </mxCell>
        <mxCell id="B960Kx4_HZpNjg3P7fA0-23" value="&lt;h1&gt;T1 Accounts&lt;br&gt;&lt;/h1&gt;" style="rounded=0;whiteSpace=wrap;html=1;fillColor=#dae8fc;strokeColor=#6c8ebf;fillStyle=auto;glass=0;shadow=0;noLabel=0;labelPadding=0;direction=east;container=0;backgroundOutline=0;movableLabel=1;" vertex="1" parent="1">
          <mxGeometry x="-400" width="360" height="200" as="geometry">
            <mxPoint x="-11" y="-79" as="offset" />
          </mxGeometry>
        </mxCell>
        <mxCell id="B960Kx4_HZpNjg3P7fA0-24" value="" style="rounded=0;whiteSpace=wrap;html=1;fillColor=#e1d5e7;strokeColor=#9673a6;fillStyle=auto;glass=0;shadow=0;noLabel=0;labelPadding=0;direction=east;container=0;backgroundOutline=0;movableLabel=1;" vertex="1" parent="1">
          <mxGeometry x="-230" y="65.5" width="170" height="120" as="geometry">
            <mxPoint x="-13" y="-34" as="offset" />
          </mxGeometry>
        </mxCell>
        <mxCell id="B960Kx4_HZpNjg3P7fA0-25" value="&lt;h1&gt;TE Accounts&lt;/h1&gt;" style="rounded=0;whiteSpace=wrap;html=1;fillColor=#f5f5f5;strokeColor=#666666;fillStyle=auto;glass=0;shadow=0;noLabel=0;labelPadding=0;direction=east;container=0;backgroundOutline=0;movableLabel=1;fontColor=#333333;" vertex="1" parent="1">
          <mxGeometry x="-400" y="240" width="360" height="200" as="geometry">
            <mxPoint x="-20" y="-71" as="offset" />
          </mxGeometry>
        </mxCell>
        <mxCell id="B960Kx4_HZpNjg3P7fA0-40" style="edgeStyle=orthogonalEdgeStyle;rounded=0;orthogonalLoop=1;jettySize=auto;html=1;entryX=0;entryY=0.5;entryDx=0;entryDy=0;" edge="1" parent="1" source="B960Kx4_HZpNjg3P7fA0-26" target="B960Kx4_HZpNjg3P7fA0-34">
          <mxGeometry relative="1" as="geometry" />
        </mxCell>
        <mxCell id="B960Kx4_HZpNjg3P7fA0-51" value="Text" style="edgeLabel;html=1;align=center;verticalAlign=middle;resizable=0;points=[];" vertex="1" connectable="0" parent="B960Kx4_HZpNjg3P7fA0-40">
          <mxGeometry x="-0.2456" y="-2" relative="1" as="geometry">
            <mxPoint as="offset" />
          </mxGeometry>
        </mxCell>
        <mxCell id="B960Kx4_HZpNjg3P7fA0-26" value="" style="image;aspect=fixed;perimeter=ellipsePerimeter;html=1;align=center;shadow=0;dashed=0;spacingTop=3;image=img/lib/active_directory/users.svg;" vertex="1" parent="1">
          <mxGeometry x="-269.3" y="297.5" width="69.3" height="105" as="geometry" />
        </mxCell>
        <mxCell id="B960Kx4_HZpNjg3P7fA0-28" value="Web server Admin group" style="image;aspect=fixed;perimeter=ellipsePerimeter;html=1;align=center;shadow=0;dashed=0;spacingTop=3;image=img/lib/active_directory/users.svg;" vertex="1" parent="1">
          <mxGeometry x="-170" y="77.75" width="43.23" height="65.5" as="geometry" />
        </mxCell>
        <mxCell id="B960Kx4_HZpNjg3P7fA0-29" value="" style="image;aspect=fixed;perimeter=ellipsePerimeter;html=1;align=center;shadow=0;dashed=0;spacingTop=3;image=img/lib/active_directory/users.svg;" vertex="1" parent="1">
          <mxGeometry x="-269.3" y="-185" width="69.3" height="105" as="geometry" />
        </mxCell>
        <mxCell id="B960Kx4_HZpNjg3P7fA0-49" style="edgeStyle=orthogonalEdgeStyle;rounded=0;orthogonalLoop=1;jettySize=auto;html=1;exitX=0.5;exitY=0;exitDx=0;exitDy=0;entryX=0.5;entryY=0;entryDx=0;entryDy=0;" edge="1" parent="1" source="B960Kx4_HZpNjg3P7fA0-48" target="B960Kx4_HZpNjg3P7fA0-47">
          <mxGeometry relative="1" as="geometry">
            <Array as="points">
              <mxPoint x="-315" y="50" />
              <mxPoint x="248" y="50" />
            </Array>
          </mxGeometry>
        </mxCell>
        <mxCell id="B960Kx4_HZpNjg3P7fA0-50" value="Can RDP to the Generic T1 servers" style="edgeLabel;html=1;align=center;verticalAlign=middle;resizable=0;points=[];" vertex="1" connectable="0" parent="B960Kx4_HZpNjg3P7fA0-49">
          <mxGeometry x="-0.1817" y="-1" relative="1" as="geometry">
            <mxPoint x="116" as="offset" />
          </mxGeometry>
        </mxCell>
        <mxCell id="B960Kx4_HZpNjg3P7fA0-48" value="" style="rounded=0;whiteSpace=wrap;html=1;fillColor=#B0EEAB;strokeColor=#d79b00;fillStyle=solid;glass=0;shadow=0;noLabel=0;labelPadding=0;direction=east;container=0;backgroundOutline=0;movableLabel=1;gradientColor=none;" vertex="1" parent="1">
          <mxGeometry x="-390" y="65.5" width="150" height="120" as="geometry">
            <mxPoint x="-4" y="70" as="offset" />
          </mxGeometry>
        </mxCell>
        <mxCell id="B960Kx4_HZpNjg3P7fA0-34" value="LAPS" style="rounded=0;whiteSpace=wrap;html=1;fillColor=#EEEE9B;strokeColor=#d79b00;fillStyle=solid;glass=0;shadow=0;noLabel=0;labelPadding=0;direction=east;container=0;backgroundOutline=0;movableLabel=1;gradientColor=none;" vertex="1" parent="1">
          <mxGeometry x="161.67000000000002" y="285" width="120" height="130" as="geometry">
            <mxPoint x="-4" y="70" as="offset" />
          </mxGeometry>
        </mxCell>
        <mxCell id="B960Kx4_HZpNjg3P7fA0-13" value="Endpoint 01" style="image;aspect=fixed;perimeter=ellipsePerimeter;html=1;align=center;shadow=0;dashed=0;spacingTop=3;image=img/lib/active_directory/laptop_client.svg;" vertex="1" parent="1">
          <mxGeometry x="180.67000000000002" y="310" width="72" height="80" as="geometry" />
        </mxCell>
        <mxCell id="B960Kx4_HZpNjg3P7fA0-37" value="LAPS" style="rounded=0;whiteSpace=wrap;html=1;fillColor=#EEEE9B;strokeColor=#d79b00;fillStyle=solid;glass=0;shadow=0;noLabel=0;labelPadding=0;direction=east;container=0;backgroundOutline=0;movableLabel=1;gradientColor=none;" vertex="1" parent="1">
          <mxGeometry x="301.67" y="285" width="120" height="130" as="geometry">
            <mxPoint x="-4" y="70" as="offset" />
          </mxGeometry>
        </mxCell>
        <mxCell id="B960Kx4_HZpNjg3P7fA0-14" value="Endpoint 02" style="image;aspect=fixed;perimeter=ellipsePerimeter;html=1;align=center;shadow=0;dashed=0;spacingTop=3;image=img/lib/active_directory/laptop_client.svg;" vertex="1" parent="1">
          <mxGeometry x="313.67" y="310" width="72" height="80" as="geometry" />
        </mxCell>
        <mxCell id="B960Kx4_HZpNjg3P7fA0-39" value="LAPS" style="rounded=0;whiteSpace=wrap;html=1;fillColor=#EEEE9B;strokeColor=#d79b00;fillStyle=solid;glass=0;shadow=0;noLabel=0;labelPadding=0;direction=east;container=0;backgroundOutline=0;movableLabel=1;gradientColor=none;" vertex="1" parent="1">
          <mxGeometry x="440.67" y="285" width="120" height="130" as="geometry">
            <mxPoint x="-4" y="70" as="offset" />
          </mxGeometry>
        </mxCell>
        <mxCell id="B960Kx4_HZpNjg3P7fA0-15" value="Endpoint 03" style="image;aspect=fixed;perimeter=ellipsePerimeter;html=1;align=center;shadow=0;dashed=0;spacingTop=3;image=img/lib/active_directory/laptop_client.svg;" vertex="1" parent="1">
          <mxGeometry x="464.67" y="310" width="72" height="80" as="geometry" />
        </mxCell>
        <mxCell id="B960Kx4_HZpNjg3P7fA0-47" value="Generic T1 services" style="rounded=0;whiteSpace=wrap;html=1;fillColor=#B0EEAB;strokeColor=#d79b00;fillStyle=solid;glass=0;shadow=0;noLabel=0;labelPadding=0;direction=east;container=0;backgroundOutline=0;movableLabel=1;gradientColor=none;" vertex="1" parent="1">
          <mxGeometry x="141.67" y="70" width="213.14" height="112.5" as="geometry">
            <mxPoint x="-4" y="70" as="offset" />
          </mxGeometry>
        </mxCell>
        <mxCell id="B960Kx4_HZpNjg3P7fA0-41" style="edgeStyle=orthogonalEdgeStyle;rounded=0;orthogonalLoop=1;jettySize=auto;html=1;entryX=0.75;entryY=1;entryDx=0;entryDy=0;" edge="1" parent="1" target="B960Kx4_HZpNjg3P7fA0-5">
          <mxGeometry relative="1" as="geometry">
            <mxPoint x="360" y="220" as="targetPoint" />
            <mxPoint x="-140" y="190" as="sourcePoint" />
            <Array as="points">
              <mxPoint x="-140" y="186" />
              <mxPoint x="-140" y="220" />
              <mxPoint x="353" y="220" />
            </Array>
          </mxGeometry>
        </mxCell>
        <mxCell id="B960Kx4_HZpNjg3P7fA0-42" value="Has Admin to Web servers. Can RDP" style="edgeLabel;html=1;align=center;verticalAlign=middle;resizable=0;points=[];" vertex="1" connectable="0" parent="B960Kx4_HZpNjg3P7fA0-41">
          <mxGeometry x="0.3435" y="-2" relative="1" as="geometry">
            <mxPoint as="offset" />
          </mxGeometry>
        </mxCell>
        <mxCell id="B960Kx4_HZpNjg3P7fA0-45" style="edgeStyle=orthogonalEdgeStyle;rounded=0;orthogonalLoop=1;jettySize=auto;html=1;exitX=1;exitY=0.5;exitDx=0;exitDy=0;entryX=0;entryY=0.5;entryDx=0;entryDy=0;" edge="1" parent="1" source="B960Kx4_HZpNjg3P7fA0-24" target="B960Kx4_HZpNjg3P7fA0-47">
          <mxGeometry relative="1" as="geometry">
            <mxPoint x="90" y="126" as="targetPoint" />
            <Array as="points">
              <mxPoint x="54" y="126" />
              <mxPoint x="142" y="126" />
            </Array>
          </mxGeometry>
        </mxCell>
        <mxCell id="B960Kx4_HZpNjg3P7fA0-46" value="&lt;div&gt;Can not RDP&lt;br&gt;Does not have Admin &lt;br&gt;privileges to the generic services&lt;br&gt;&lt;/div&gt;" style="edgeLabel;html=1;align=center;verticalAlign=middle;resizable=0;points=[];" vertex="1" connectable="0" parent="B960Kx4_HZpNjg3P7fA0-45">
          <mxGeometry x="-0.1904" relative="1" as="geometry">
            <mxPoint x="18" y="41" as="offset" />
          </mxGeometry>
        </mxCell>
        <mxCell id="B960Kx4_HZpNjg3P7fA0-16" value="" style="image;aspect=fixed;perimeter=ellipsePerimeter;html=1;align=center;shadow=0;dashed=0;spacingTop=3;image=img/lib/active_directory/databases.svg;" vertex="1" parent="1">
          <mxGeometry x="166.96" y="78" width="85.71" height="84" as="geometry" />
        </mxCell>
        <mxCell id="B960Kx4_HZpNjg3P7fA0-17" value="" style="image;aspect=fixed;perimeter=ellipsePerimeter;html=1;align=center;shadow=0;dashed=0;spacingTop=3;image=img/lib/active_directory/generic_server.svg;" vertex="1" parent="1">
          <mxGeometry x="281.67" y="73.75" width="51.8" height="92.5" as="geometry" />
        </mxCell>
        <mxCell id="B960Kx4_HZpNjg3P7fA0-27" value="Generic T1 service admins" style="image;aspect=fixed;perimeter=ellipsePerimeter;html=1;align=center;shadow=0;dashed=0;spacingTop=3;image=img/lib/active_directory/users.svg;movable=1;resizable=1;rotatable=1;deletable=1;editable=1;locked=0;connectable=1;" vertex="1" parent="1">
          <mxGeometry x="-338.92" y="83.75" width="47.85" height="72.5" as="geometry" />
        </mxCell>
      </root>
    </mxGraphModel>
  </diagram>
</mxfile>
